<svg width="39" height="31" viewBox="0 0 39 31" fill="none" xmlns="http://www.w3.org/2000/svg">
<path d="M15.1206 21.3684C15.1206 23.0556 14.235 25.8164 12.1387 25.8164C10.0425 25.8164 9.15687 23.0556 9.15687 21.3684C9.15687 19.6812 10.0425 16.9203 12.1387 16.9203C14.235 16.9203 15.1206 19.6812 15.1206 21.3684V21.3684ZM39 17.2917C39 19.8669 38.74 22.5954 37.5781 24.9607C34.4987 31.1444 26.0325 30.9991 19.9712 30.9991C13.8125 30.9991 4.8425 31.217 1.64125 24.9607C0.455 22.6196 0 19.8669 0 17.2917C0 13.9092 1.12937 10.7124 3.37187 8.12111C2.94937 6.84563 2.74625 5.50557 2.74625 4.18165C2.74625 2.44602 3.14438 1.57417 3.9325 0C7.61312 0 9.96937 0.726541 12.7725 2.90616C15.1287 2.34915 17.55 2.0989 19.9794 2.0989C22.1731 2.0989 24.3831 2.333 26.5119 2.84158C29.2744 0.686177 31.6306 0 35.2706 0C36.0669 1.57417 36.4569 2.44602 36.4569 4.18165C36.4569 5.50557 36.2456 6.82141 35.8312 8.07268C38.0656 10.6882 39 13.9092 39 17.2917V17.2917ZM33.7756 21.3684C33.7756 17.8245 31.6062 14.7003 27.8037 14.7003C26.2681 14.7003 24.7975 14.9748 23.2538 15.1847C22.0431 15.3704 20.8325 15.443 19.5894 15.443C18.3544 15.443 17.1437 15.3704 15.925 15.1847C14.4056 14.9748 12.9187 14.7003 11.375 14.7003C7.5725 14.7003 5.40312 17.8245 5.40312 21.3684C5.40312 28.4562 11.9356 29.546 17.6231 29.546H21.5394C27.2512 29.546 33.7756 28.4643 33.7756 21.3684V21.3684ZM27.0644 16.9203C24.9681 16.9203 24.0825 19.6812 24.0825 21.3684C24.0825 23.0556 24.9681 25.8164 27.0644 25.8164C29.1606 25.8164 30.0462 23.0556 30.0462 21.3684C30.0462 19.6812 29.1606 16.9203 27.0644 16.9203Z" fill="#333333"/>
</svg>
